<svg width="316" height="63" viewBox="0 0 316 63" fill="none" xmlns="http://www.w3.org/2000/svg">
<mask id="mask0_357_2961" style="mask-type:luminance" maskUnits="userSpaceOnUse" x="0" y="0" width="63" height="63">
<path d="M56.3623 0.400024L0.200195 6.64999L6.45017 62.8121L62.6123 56.5622L56.3623 0.400024Z" fill="white"/>
</mask>
<g mask="url(#mask0_357_2961)">
<path d="M12.3514 52.064C12.4015 52.114 12.4578 52.164 12.5078 52.2141L14.4844 49.4056C16.1233 46.1842 16.7613 43.2442 16.78 40.7422C16.755 39.4036 16.5673 38.0775 16.2296 36.7889C15.9919 36.0133 15.8167 35.2126 15.7041 34.4057C15.7041 34.3995 15.7041 34.387 15.7041 34.3744C15.6291 33.8365 15.579 33.2861 15.554 32.7356C15.21 23.8658 22.1031 16.2659 30.9479 15.7654L30.8854 15.7092C32.9933 15.5778 36.0646 16.0407 38.6417 15.3651C41.3127 14.6082 43.7396 13.1383 45.6662 11.1116C45.76 11.0115 45.8664 10.9239 45.979 10.8489L47.793 8.27803C40.1992 3.01124 30.1785 1.56631 20.9835 5.32564C6.54664 11.218 -0.371542 27.7065 5.52705 42.1433C7.00326 45.7525 9.13624 48.8926 11.7384 51.476C11.9385 51.6761 12.1388 51.8701 12.3451 52.064H12.3514Z" fill="black" stroke="black" stroke-width="0.17033" stroke-miterlimit="10"/>
<path d="M49.1189 13.1633C49.0752 13.2947 49.0251 13.4323 48.9501 13.5574C47.2424 16.7537 46.5168 21.5827 46.6732 23.4906C46.9297 26.6619 47.8992 28.7199 47.599 31.1468C47.8242 39.9478 40.9435 47.4226 32.1675 47.9044C32.1675 47.9044 32.155 47.9044 32.1488 47.9044C30.2159 48.0295 29.9907 47.8418 28.2206 47.9231C24.5676 48.0857 20.6706 49.612 17.9684 52.4643L16.1606 55.0351C16.6799 55.3792 17.2053 55.7044 17.737 56.0298C17.9809 56.1674 18.2249 56.2987 18.4688 56.4301C25.6059 60.1956 34.2943 60.89 42.3447 57.5998C56.7815 51.7012 63.6997 35.2126 57.8011 20.7758C56.1872 16.8289 53.779 13.4385 50.8391 10.7238L49.1189 13.1633Z" fill="black" stroke="black" stroke-width="0.17033" stroke-miterlimit="10"/>
</g>
<g clip-path="url(#clip0_357_2961)">
<path d="M172.185 8.06982V15.4655H140.068V27.3628H165.897V34.7584H140.068V46.9774H172.185V54.373H132.12V15.4655H132.117V8.06982H172.185Z" fill="black"/>
<path d="M192.193 8.08911H181.792L219.046 54.3923H229.477L210.848 31.2566L229.447 8.12444L219.046 8.14051L205.641 24.7894L192.193 8.08911Z" fill="black"/>
<path d="M202.867 41.1637L197.658 34.6876L181.763 54.4276H192.194L202.867 41.1637Z" fill="black"/>
<path fill-rule="evenodd" clip-rule="evenodd" d="M132.399 54.373L95.0955 8.05054H85.1611V54.3537H93.1086V17.9478L122.415 54.373H132.399Z" fill="black"/>
<path d="M295.417 21.6187C295.189 19.7002 294.183 18.2025 292.432 17.138C290.665 16.0611 288.383 15.5289 285.583 15.5289C283.617 15.5289 281.923 15.7889 280.516 16.2963C279.109 16.8162 278.018 17.5093 277.271 18.3881C276.525 19.267 276.151 20.2696 276.122 21.3961C276.122 22.3368 276.38 23.1536 276.883 23.8345C277.386 24.5276 278.06 25.1094 278.936 25.5798C279.797 26.0624 280.759 26.4585 281.808 26.7803C282.87 27.1021 283.933 27.3745 284.994 27.5973L289.89 28.6494C291.857 29.0455 293.767 29.5779 295.59 30.2586C297.413 30.927 299.064 31.7811 300.514 32.8084C301.964 33.8358 303.113 35.0735 303.96 36.5218C304.807 37.9699 305.238 39.6657 305.238 41.6214C305.238 44.2578 304.463 46.5725 302.897 48.5777C301.332 50.5705 299.079 52.1302 296.121 53.2566C293.177 54.3707 289.617 54.94 285.426 54.94C281.377 54.94 277.845 54.3955 274.873 53.3062C271.888 52.2293 269.561 50.6448 267.881 48.5653C266.202 46.4859 265.297 43.9484 265.168 40.9653H274.472C274.601 42.5249 275.175 43.8247 276.151 44.8768C277.141 45.9165 278.433 46.684 280.013 47.2038C281.607 47.7113 283.386 47.9712 285.354 47.9712C287.407 47.9712 289.216 47.6989 290.78 47.1666C292.331 46.6344 293.551 45.8919 294.427 44.9264C295.318 43.9732 295.763 42.8469 295.777 41.5596C295.763 40.3837 295.36 39.4057 294.585 38.6382C293.795 37.8709 292.704 37.2273 291.311 36.7074C289.905 36.1876 288.268 35.7172 286.402 35.3087L280.458 33.9966C276.165 33.0436 272.763 31.5954 270.278 29.6521C267.781 27.7087 266.546 25.1342 266.546 21.9035C266.546 19.2547 267.378 16.9277 269.059 14.9348C270.723 12.942 273.007 11.3948 275.893 10.2931C278.793 9.17917 282.066 8.6344 285.712 8.6344C289.417 8.6344 292.661 9.17917 295.461 10.2931C298.26 11.3948 300.458 12.9296 302.05 14.8852C303.644 16.841 304.477 19.0813 304.52 21.6187H295.417Z" fill="black"/>
</g>
<path d="M243.97 8.6344H252.144V54.759H243.97V8.6344Z" fill="black"/>
<defs>
<clipPath id="clip0_357_2961">
<rect width="230.039" height="46.7084" fill="white" transform="translate(85.1611 8.05054)"/>
</clipPath>
</defs>
</svg>
